<svg viewBox="0 0 20 20" fill="none" xmlns="http://www.w3.org/2000/svg" width="1em" height="1em" focusable="false" aria-hidden="true"><path d="M15.022 4.09832C15.2675 3.89807 15.6297 3.91262 15.8586 4.14145C16.0874 4.37029 16.102 4.73256 15.9017 4.97804L15.8586 5.02524L10.8838 10L15.8586 14.9748L15.9017 15.022C16.102 15.2675 16.0874 15.6297 15.8586 15.8586C15.6297 16.0874 15.2675 16.102 15.022 15.9017L14.9748 15.8586L10 10.8838L5.02524 15.8586C4.78117 16.1027 4.38553 16.1027 4.14145 15.8586C3.89738 15.6145 3.89738 15.2189 4.14145 14.9748L9.11623 10L4.14145 5.02524L4.09832 4.97804C3.89807 4.73256 3.91262 4.37029 4.14145 4.14145C4.37029 3.91262 4.73256 3.89807 4.97804 4.09832L5.02524 4.14145L10 9.11623L14.9748 4.14145L15.022 4.09832Z" fill="currentColor"></path></svg>