<?xml version="1.0"?>
<svg xmlns="http://www.w3.org/2000/svg" width="20" height="20" viewBox="0 0 20 20">
  <g>
    <g>
      <rect x="0" y="0" width="20" height="20" rx="0" fill="#D8D8D8" fill-opacity="0"/>
    </g>
    <g>
      <path d="M2.7837459765625,5.8347959765625C5.0835359765625,1.8485049765625,10.1788259765625,0.48396597656249996,14.1651259765625,2.7837459765625C18.1514259765625,5.0835359765625,19.5159259765625,10.1788259765625,17.216125976562502,14.1651259765625C14.9164259765625,18.1514259765625,9.8210859765625,19.5159259765625,5.8347959765625,17.216125976562502C1.8485049765625,14.9164259765625,0.48396597656249996,9.8210859765625,2.7837459765625,5.8347959765625ZM9.2666059765625,3.4235259765625C9.2666059765625,3.0169859765625002,9.5961659765625,2.6874059765625002,10.0027159765625,2.6873959765624997C10.4065559765625,2.6873859765625,10.7350159765625,3.0127359765625,10.7388359765625,3.4165659765625L10.7594659765625,5.5964559765625C10.7633959765625,6.0114559765625,10.4280659765625,6.3499759765625,10.0130559765625,6.3499759765625C9.6007959765625,6.3499759765625,9.2666059765625,6.0157759765625,9.2666059765625,5.6035259765625L9.2666059765625,3.4235259765625ZM8.7836259765625,12.1055259765625C9.9488559765625,12.7801259765625,11.4360459765625,12.3815259765625,12.1106259765625,11.2162859765625C12.7852259765625,10.0510659765625,12.3815259765625,8.5638759765625,11.2162859765625,7.8892659765625C10.0510659765625,7.2146659765625,8.5638759765625,7.6132959765625,7.8892659765625,8.778515976562499C7.2197759765625,9.9437459765625,7.6184059765625,11.4309359765625,8.7836259765625,12.1055259765625ZM6.5399159765625,11.6375359765625C6.3366359765625,11.2854659765625,5.8864259765625,11.1648359765625,5.5343459765625,11.3681059765625L3.6464159765625,12.4581259765625C3.2893959765625,12.6642259765625,3.1670759765625,13.1207259765625,3.3731959765625,13.4778259765625C3.5807059765625002,13.8372259765625,4.0415359765625,13.9583259765625,4.398965976562501,13.7474259765625L6.2764959765625,12.6396259765625C6.6243159765625,12.4344259765625,6.7418459765625,11.9872259765625,6.5399159765625,11.6375359765625ZM16.2843259765625,12.4632259765625C16.6364259765625,12.6665259765625,16.757025976562502,13.1167259765625,16.5538259765625,13.4688259765625C16.351925976562498,13.8185259765625,15.9059259765625,13.9403259765625,15.5542259765625,13.7417259765625L13.6561259765625,12.6696259765625C13.2947259765625,12.4655259765625,13.1692259765625,12.0059259765625,13.3767259765625,11.6464759765625C13.5828259765625,11.2894559765625,14.0394259765625,11.1671359765625,14.3964259765625,11.3732559765625L16.2843259765625,12.4632259765625Z" fill-rule="evenodd" fill="#E8BD77" fill-opacity="1"/>
    </g>
  </g>
</svg>
