<svg xmlns="http://www.w3.org/2000/svg" width="24" height="24" viewBox="0 0 24 24"><g><g></g><g transform="matrix(1,0,0,-1,0,43.05078125)"><rect x="3.851" y="21.525" width="16.299360275268555" height="3.1752002239227295" rx="1" fill="currentColor" fill-opacity="1"/></g><g><path d="M8.5255259375,9.633339375C8.5255259375,9.633339375,8.525535937499999,5.457549375,8.525535937499999,3.484489375C8.525535937499999,2.932206375,8.9696359375,2.474609375,9.5219259375,2.474609375C10.8240859375,2.474609375,13.0914459375,2.474609375,14.3935859375,2.474609375C14.9458859375,2.474609375,15.3899859375,2.912057375,15.3899859375,3.464341375C15.3899859375,5.4426893750000005,15.3899859375,9.697219375,15.3899859375,9.697219375C15.3899859375,9.697219375,16.532885937499998,9.702929375,17.6985859375,9.708769375C18.5943859375,9.713249375,19.0597859375,10.778399375,18.4166859375,11.402129375C16.6642859375,13.101909375,14.0438859375,15.643509375,12.8121659375,16.838209374999998C12.4315859375,17.207309375,11.8299859375,17.233109374999998,11.4413259375,16.872509375C10.1234059375,15.654709375,7.2016359375,12.945209375,5.3642659375,11.166929375C4.7650489375,10.566709375,5.1472859374999995,9.633339375,5.9954159375,9.633339375C7.2246959375,9.633339375,8.5255259375,9.633339375,8.5255259375,9.633339375Z" fill="currentColor" fill-opacity="1"/></g></g></svg>
